<svg id="visual" viewBox="0 0 900 600" width="900" height="600" xmlns="http://www.w3.org/2000/svg" xmlns:xlink="http://www.w3.org/1999/xlink" version="1.1"><rect width="900" height="600" fill="#1c1c20"></rect><g><g transform="translate(633 597)"><path d="M0 -68.6L59.4 -34.3L59.4 34.3L0 68.6L-59.4 34.3L-59.4 -34.3Z" fill="none" stroke="#5354FF" stroke-width="2"></path></g><g transform="translate(41 472)"><path d="M0 -46L39.8 -23L39.8 23L0 46L-39.8 23L-39.8 -23Z" fill="none" stroke="#5354FF" stroke-width="2"></path></g><g transform="translate(728 338)"><path d="M0 -44L38.1 -22L38.1 22L0 44L-38.1 22L-38.1 -22Z" fill="none" stroke="#5354FF" stroke-width="2"></path></g><g transform="translate(127 257)"><path d="M0 -65L56.3 -32.5L56.3 32.5L0 65L-56.3 32.5L-56.3 -32.5Z" fill="none" stroke="#5354FF" stroke-width="2"></path></g><g transform="translate(592 454)"><path d="M0 -67L58 -33.5L58 33.5L0 67L-58 33.5L-58 -33.5Z" fill="none" stroke="#5354FF" stroke-width="2"></path></g><g transform="translate(225 16)"><path d="M0 -36L31.2 -18L31.2 18L0 36L-31.2 18L-31.2 -18Z" fill="none" stroke="#5354FF" stroke-width="2"></path></g><g transform="translate(38 40)"><path d="M0 -50L43.3 -25L43.3 25L0 50L-43.3 25L-43.3 -25Z" fill="none" stroke="#5354FF" stroke-width="2"></path></g><g transform="translate(289 391)"><path d="M0 -45L39 -22.5L39 22.5L0 45L-39 22.5L-39 -22.5Z" stroke="#5354FF" fill="none" stroke-width="2"></path></g><g transform="translate(541 156)"><path d="M0 -41L35.5 -20.5L35.5 20.5L0 41L-35.5 20.5L-35.5 -20.5Z" stroke="#5354FF" fill="none" stroke-width="2"></path></g><g transform="translate(568 302)"><path d="M0 -61L52.8 -30.5L52.8 30.5L0 61L-52.8 30.5L-52.8 -30.5Z" stroke="#5354FF" fill="none" stroke-width="2"></path></g><g transform="translate(477 560)"><path d="M0 -63L54.6 -31.5L54.6 31.5L0 63L-54.6 31.5L-54.6 -31.5Z" stroke="#5354FF" fill="none" stroke-width="2"></path></g><g transform="translate(410 56)"><path d="M0 -34L29.4 -17L29.4 17L0 34L-29.4 17L-29.4 -17Z" stroke="#5354FF" fill="none" stroke-width="2"></path></g><g transform="translate(128 589)"><path d="M0 -42L36.4 -21L36.4 21L0 42L-36.4 21L-36.4 -21Z" stroke="#5354FF" fill="none" stroke-width="2"></path></g><g transform="translate(443 382)"><path d="M0 -37L32 -18.5L32 18.5L0 37L-32 18.5L-32 -18.5Z" stroke="#5354FF" fill="none" stroke-width="2"></path></g><g transform="translate(699 59)"><path d="M0 -37L32 -18.5L32 18.5L0 37L-32 18.5L-32 -18.5Z" stroke="#5354FF" fill="none" stroke-width="2"></path></g></g></svg>